<svg xmlns="http://www.w3.org/2000/svg" width="1200" height="600" viewBox="0 0 1200 600">
  <defs>
    <linearGradient id="e" x1="0" y1="0" x2="1" y2="1">
      <stop offset="0" stop-color="#7aa7ff" stop-opacity="0.22"/>
      <stop offset="1" stop-color="#7fffd4" stop-opacity="0.14"/>
    </linearGradient>
  </defs>
  <rect width="1200" height="600" fill="#0b1220"/>
  <g transform="translate(160 120)">
    <polygon points="200,0 700,0 900,120 400,120" fill="rgba(232,238,252,0.04)" stroke="rgba(232,238,252,0.14)" stroke-width="3"/>
    <polygon points="400,120 900,120 900,420 400,420" fill="url(#e)" stroke="rgba(232,238,252,0.14)" stroke-width="3"/>
    <polygon points="200,0 400,120 400,420 200,300" fill="rgba(122,167,255,0.12)" stroke="rgba(232,238,252,0.14)" stroke-width="3"/>
    <g stroke="rgba(232,238,252,0.16)" stroke-width="2">
      <line x1="462" y1="120" x2="462" y2="420"/><line x1="524" y1="120" x2="524" y2="420"/><line x1="586" y1="120" x2="586" y2="420"/><line x1="648" y1="120" x2="648" y2="420"/><line x1="710" y1="120" x2="710" y2="420"/><line x1="772" y1="120" x2="772" y2="420"/><line x1="834" y1="120" x2="834" y2="420"/><line x1="400" y1="180" x2="900" y2="180"/><line x1="400" y1="240" x2="900" y2="240"/><line x1="400" y1="300" x2="900" y2="300"/><line x1="400" y1="360" x2="900" y2="360"/><line x1="233" y1="20" x2="433" y2="140"/><line x1="266" y1="40" x2="466" y2="160"/><line x1="299" y1="60" x2="499" y2="180"/><line x1="332" y1="80" x2="532" y2="200"/><line x1="365" y1="100" x2="565" y2="220"/>
    </g>
  </g>
</svg>