<svg xmlns="http://www.w3.org/2000/svg" width="1200" height="600" viewBox="0 0 1200 600">
  <defs>
    <linearGradient id="b" x1="0" y1="0" x2="1" y2="1">
      <stop offset="0" stop-color="#7fffd4" stop-opacity="0.25"/>
      <stop offset="1" stop-color="#7aa7ff" stop-opacity="0.20"/>
    </linearGradient>
  </defs>
  <rect width="1200" height="600" fill="#0b1220"/>
  <rect x="110" y="120" width="420" height="360" rx="34" fill="rgba(232,238,252,0.04)" stroke="#e8eefc" stroke-opacity="0.14"/>
  <path d="M170 190h250M170 250h290M170 310h210M170 370h290" stroke="#e8eefc" stroke-opacity="0.22" stroke-width="8" stroke-linecap="round"/>
  <path d="M200 455l40 40 80-90" fill="none" stroke="#7fffd4" stroke-width="12" stroke-linecap="round" stroke-linejoin="round"/>
  <path d="M650 160c40 80 80 40 120 120s80 40 120 120 80 40 120 120 80 40 120 120" fill="none" stroke="url(#b)" stroke-width="10" stroke-linecap="round"/>
  <circle cx="650" cy="160" r="10" fill="#7aa7ff"/>
  <circle cx="770" cy="280" r="10" fill="#7fffd4"/>
  <circle cx="890" cy="400" r="10" fill="#7aa7ff"/>
  <circle cx="1010" cy="520" r="10" fill="#7fffd4"/>
</svg>