<svg xmlns="http://www.w3.org/2000/svg" width="1200" height="600" viewBox="0 0 1200 600">
  <rect width="1200" height="600" fill="#0b1220"/>
  <rect x="120" y="90" width="960" height="420" rx="24" fill="rgba(232,238,252,0.04)" stroke="rgba(232,238,252,0.14)" stroke-width="3"/>
  <g stroke="rgba(232,238,252,0.10)" stroke-width="2">
    <line x1="120" y1="90" x2="120" y2="510"/><line x1="180" y1="90" x2="180" y2="510"/><line x1="240" y1="90" x2="240" y2="510"/><line x1="300" y1="90" x2="300" y2="510"/><line x1="360" y1="90" x2="360" y2="510"/><line x1="420" y1="90" x2="420" y2="510"/><line x1="480" y1="90" x2="480" y2="510"/><line x1="540" y1="90" x2="540" y2="510"/><line x1="600" y1="90" x2="600" y2="510"/><line x1="660" y1="90" x2="660" y2="510"/><line x1="720" y1="90" x2="720" y2="510"/><line x1="780" y1="90" x2="780" y2="510"/><line x1="840" y1="90" x2="840" y2="510"/><line x1="900" y1="90" x2="900" y2="510"/><line x1="960" y1="90" x2="960" y2="510"/><line x1="1020" y1="90" x2="1020" y2="510"/><line x1="1080" y1="90" x2="1080" y2="510"/><line x1="120" y1="90" x2="1080" y2="90"/><line x1="120" y1="150" x2="1080" y2="150"/><line x1="120" y1="210" x2="1080" y2="210"/><line x1="120" y1="270" x2="1080" y2="270"/><line x1="120" y1="330" x2="1080" y2="330"/><line x1="120" y1="390" x2="1080" y2="390"/><line x1="120" y1="450" x2="1080" y2="450"/><line x1="120" y1="510" x2="1080" y2="510"/>
  </g>
  <g fill="none" stroke-width="6" stroke-linecap="round">
    <path d="M220 430c70-120 120-50 170-140s130-40 180-140 120-40 170-110" stroke="#7aa7ff" opacity="0.75"/>
    <path d="M320 440c60-90 100-30 140-110s110-30 150-120 90-30 140-90" stroke="#7fffd4" opacity="0.70"/>
    <path d="M520 460c80-100 140-30 200-130s140-30 200-130 120-30 200-90" stroke="#e8eefc" opacity="0.30"/>
  </g>
  <g stroke="rgba(232,238,252,0.18)" stroke-width="6">
    <line x1="360" y1="90" x2="360" y2="510"/>
    <line x1="560" y1="90" x2="560" y2="510"/>
    <line x1="760" y1="90" x2="760" y2="510"/>
    <line x1="960" y1="90" x2="960" y2="510"/>
  </g>
</svg>