<svg xmlns="http://www.w3.org/2000/svg" width="1600" height="900" viewBox="0 0 1600 900">
  <defs>
    <linearGradient id="g0" x1="0" y1="0" x2="1" y2="1">
      <stop offset="0" stop-color="#7aa7ff" stop-opacity="0.28"/>
      <stop offset="1" stop-color="#7fffd4" stop-opacity="0.16"/>
    </linearGradient>
    <linearGradient id="g1" x1="0" y1="1" x2="1" y2="0">
      <stop offset="0" stop-color="#0b1220"/>
      <stop offset="1" stop-color="#101a2f"/>
    </linearGradient>
    <filter id="blur" x="-20%" y="-20%" width="140%" height="140%">
      <feGaussianBlur stdDeviation="12"/>
    </filter>
  </defs>

  <rect width="1600" height="900" fill="url(#g1)"/>

  <circle cx="320" cy="150" r="260" fill="url(#g0)" filter="url(#blur)"/>
  <circle cx="1320" cy="220" r="320" fill="url(#g0)" filter="url(#blur)" opacity="0.8"/>
  <circle cx="980" cy="720" r="380" fill="url(#g0)" filter="url(#blur)" opacity="0.55"/>

  <g fill="none" stroke="#e8eefc" stroke-opacity="0.12" stroke-width="2.2">
    <path d="M-50,560 C220,520 360,610 560,590 C820,565 910,480 1120,500 C1320,520 1440,610 1660,585"/>
    <path d="M-50,610 C220,570 360,660 560,640 C820,615 910,530 1120,550 C1320,570 1440,660 1660,635"/>
    <path d="M-50,660 C220,620 360,710 560,690 C820,665 910,580 1120,600 C1320,620 1440,710 1660,685"/>
    <path d="M-50,710 C220,670 360,760 560,740 C820,715 910,630 1120,650 C1320,670 1440,760 1660,735"/>
    <path d="M-50,760 C220,720 360,810 560,790 C820,765 910,680 1120,700 C1320,720 1440,810 1660,785"/>
  </g>

  <g stroke="#e8eefc" stroke-opacity="0.06" stroke-width="1">
    <line x1="0" y1="0" x2="0" y2="900"/>
<line x1="80" y1="0" x2="80" y2="900"/>
<line x1="160" y1="0" x2="160" y2="900"/>
<line x1="240" y1="0" x2="240" y2="900"/>
<line x1="320" y1="0" x2="320" y2="900"/>
<line x1="400" y1="0" x2="400" y2="900"/>
<line x1="480" y1="0" x2="480" y2="900"/>
<line x1="560" y1="0" x2="560" y2="900"/>
<line x1="640" y1="0" x2="640" y2="900"/>
<line x1="720" y1="0" x2="720" y2="900"/>
<line x1="800" y1="0" x2="800" y2="900"/>
<line x1="880" y1="0" x2="880" y2="900"/>
<line x1="960" y1="0" x2="960" y2="900"/>
<line x1="1040" y1="0" x2="1040" y2="900"/>
<line x1="1120" y1="0" x2="1120" y2="900"/>
<line x1="1200" y1="0" x2="1200" y2="900"/>
<line x1="1280" y1="0" x2="1280" y2="900"/>
<line x1="1360" y1="0" x2="1360" y2="900"/>
<line x1="1440" y1="0" x2="1440" y2="900"/>
<line x1="1520" y1="0" x2="1520" y2="900"/>
<line x1="1600" y1="0" x2="1600" y2="900"/>
    <line x1="0" y1="0" x2="1600" y2="0"/>
<line x1="0" y1="80" x2="1600" y2="80"/>
<line x1="0" y1="160" x2="1600" y2="160"/>
<line x1="0" y1="240" x2="1600" y2="240"/>
<line x1="0" y1="320" x2="1600" y2="320"/>
<line x1="0" y1="400" x2="1600" y2="400"/>
<line x1="0" y1="480" x2="1600" y2="480"/>
<line x1="0" y1="560" x2="1600" y2="560"/>
<line x1="0" y1="640" x2="1600" y2="640"/>
<line x1="0" y1="720" x2="1600" y2="720"/>
<line x1="0" y1="800" x2="1600" y2="800"/>
<line x1="0" y1="880" x2="1600" y2="880"/>
  </g>
</svg>
