<svg xmlns="http://www.w3.org/2000/svg" width="1400" height="900" viewBox="0 0 1400 900">
  <defs>
    <linearGradient id="bg2" x1="0" y1="0" x2="1" y2="1">
      <stop offset="0" stop-color="#0b1220"/>
      <stop offset="1" stop-color="#141c33"/>
    </linearGradient>
    <linearGradient id="mesh" x1="0" y1="0" x2="1" y2="0">
      <stop offset="0" stop-color="#7C5CFF" stop-opacity=".70"/>
      <stop offset="1" stop-color="#36D6C5" stop-opacity=".70"/>
    </linearGradient>
    <filter id="shadow" x="-30%" y="-30%" width="160%" height="160%">
      <feDropShadow dx="0" dy="18" stdDeviation="18" flood-color="#000" flood-opacity=".55"/>
    </filter>
  </defs>

  <rect width="1400" height="900" fill="url(#bg2)"/>

  <g filter="url(#shadow)" opacity=".98">
    <path d="M330 230 L870 140 L1140 330 L600 420 Z" fill="rgba(255,255,255,.05)" stroke="rgba(255,255,255,.14)" stroke-width="2"/>
    <path d="M330 230 L600 420 L600 720 L330 540 Z" fill="rgba(255,255,255,.04)" stroke="rgba(255,255,255,.14)" stroke-width="2"/>
    <path d="M600 420 L1140 330 L1140 630 L600 720 Z" fill="rgba(255,255,255,.035)" stroke="rgba(255,255,255,.14)" stroke-width="2"/>
  </g>

  <g opacity=".35" stroke="url(#mesh)" stroke-width="2">
    <line x1="330" y1="230" x2="600" y2="420"/>
    <line x1="390" y1="220" x2="660" y2="410"/>
    <line x1="450" y1="210" x2="720" y2="400"/>
    <line x1="510" y1="200" x2="780" y2="390"/>
    <line x1="570" y1="190" x2="840" y2="380"/>
    <line x1="630" y1="180" x2="900" y2="370"/>
    <line x1="690" y1="170" x2="960" y2="360"/>
    <line x1="750" y1="160" x2="1020" y2="350"/>
    <line x1="810" y1="150" x2="1080" y2="340"/>
    <line x1="330" y1="230" x2="870" y2="140"/>
    <line x1="410" y1="248" x2="950" y2="158"/>
    <line x1="490" y1="266" x2="1030" y2="176"/>
    <line x1="570" y1="284" x2="1110" y2="194"/>
    <line x1="650" y1="302" x2="1190" y2="212"/>
    <line x1="730" y1="320" x2="1270" y2="230"/>
    <line x1="810" y1="338" x2="1350" y2="248"/>
  </g>

  <g opacity=".95">
    <path d="M565 260 L585 670" stroke="rgba(54,214,197,.85)" stroke-width="5"/>
    <path d="M690 235 L720 700" stroke="rgba(124,92,255,.85)" stroke-width="5"/>
    <path d="M820 215 L860 680" stroke="rgba(54,214,197,.65)" stroke-width="4"/>
  </g>

  <g opacity=".22" stroke="rgba(255,255,255,.65)" stroke-width="2">
    <path d="M410 345 L920 265 L1085 360 L575 440 Z" fill="none"/>
    <path d="M410 420 L920 340 L1085 435 L575 515 Z" fill="none"/>
    <path d="M410 500 L920 420 L1085 515 L575 595 Z" fill="none"/>
  </g>

  <text x="170" y="160" fill="rgba(255,255,255,.78)" font-family="ui-sans-serif, system-ui" font-size="16" font-weight="700">
    Static / reservoir model view (illustrative)
  </text>
</svg>
