<svg xmlns="http://www.w3.org/2000/svg" width="1400" height="900" viewBox="0 0 1400 900">
  <defs>
    <linearGradient id="bg" x1="0" y1="0" x2="1" y2="1">
      <stop offset="0" stop-color="#0b1220"/>
      <stop offset="1" stop-color="#111a2f"/>
    </linearGradient>
    <linearGradient id="glow" x1="0" y1="0" x2="1" y2="0">
      <stop offset="0" stop-color="#36D6C5" stop-opacity=".75"/>
      <stop offset="1" stop-color="#7C5CFF" stop-opacity=".75"/>
    </linearGradient>
    <filter id="soft" x="-20%" y="-20%" width="140%" height="140%">
      <feGaussianBlur stdDeviation="10" result="b"/>
      <feColorMatrix in="b" type="matrix" values="
        1 0 0 0 0
        0 1 0 0 0
        0 0 1 0 0
        0 0 0 .45 0" result="a"/>
      <feMerge>
        <feMergeNode in="a"/>
        <feMergeNode in="SourceGraphic"/>
      </feMerge>
    </filter>
  </defs>

  <rect width="1400" height="900" fill="url(#bg)"/>

  <!-- Panel -->
  <rect x="90" y="90" width="1220" height="720" rx="26" fill="rgba(255,255,255,.06)" stroke="rgba(255,255,255,.16)"/>
  <rect x="120" y="130" width="1160" height="60" rx="18" fill="rgba(255,255,255,.05)" stroke="rgba(255,255,255,.10)"/>
  <circle cx="160" cy="160" r="8" fill="#36D6C5"/>
  <circle cx="190" cy="160" r="8" fill="#7C5CFF"/>
  <circle cx="220" cy="160" r="8" fill="#F7C948"/>

  <!-- Track columns -->
  <g opacity=".95">
    <rect x="120" y="210" width="260" height="570" rx="18" fill="rgba(255,255,255,.04)" stroke="rgba(255,255,255,.10)"/>
    <rect x="400" y="210" width="260" height="570" rx="18" fill="rgba(255,255,255,.04)" stroke="rgba(255,255,255,.10)"/>
    <rect x="680" y="210" width="260" height="570" rx="18" fill="rgba(255,255,255,.04)" stroke="rgba(255,255,255,.10)"/>
    <rect x="960" y="210" width="320" height="570" rx="18" fill="rgba(255,255,255,.04)" stroke="rgba(255,255,255,.10)"/>
  </g>

  <!-- Depth ticks -->
  <g opacity=".45" stroke="rgba(255,255,255,.55)">
    <line x1="125" y1="250" x2="138" y2="250" stroke-width="2"/>
    <line x1="125" y1="270" x2="134" y2="270" stroke-width="1.5"/>
    <line x1="125" y1="290" x2="138" y2="290" stroke-width="2"/>
    <line x1="125" y1="330" x2="138" y2="330" stroke-width="2"/>
    <line x1="125" y1="350" x2="134" y2="350" stroke-width="1.5"/>
    <line x1="125" y1="370" x2="138" y2="370" stroke-width="2"/>
    <line x1="125" y1="410" x2="138" y2="410" stroke-width="2"/>
    <line x1="125" y1="430" x2="134" y2="430" stroke-width="1.5"/>
    <line x1="125" y1="450" x2="138" y2="450" stroke-width="2"/>
    <line x1="125" y1="490" x2="138" y2="490" stroke-width="2"/>
    <line x1="125" y1="510" x2="134" y2="510" stroke-width="1.5"/>
    <line x1="125" y1="530" x2="138" y2="530" stroke-width="2"/>
    <line x1="125" y1="570" x2="138" y2="570" stroke-width="2"/>
    <line x1="125" y1="590" x2="134" y2="590" stroke-width="1.5"/>
    <line x1="125" y1="610" x2="138" y2="610" stroke-width="2"/>
    <line x1="125" y1="650" x2="138" y2="650" stroke-width="2"/>
    <line x1="125" y1="670" x2="134" y2="670" stroke-width="1.5"/>
    <line x1="125" y1="690" x2="138" y2="690" stroke-width="2"/>
    <line x1="125" y1="730" x2="138" y2="730" stroke-width="2"/>
    <line x1="125" y1="750" x2="134" y2="750" stroke-width="1.5"/>
    <line x1="125" y1="770" x2="138" y2="770" stroke-width="2"/>
  </g>

  <!-- Curves -->
  <path d="M155 250 C 220 290, 240 340, 160 380 C 110 405, 220 450, 170 500 C 120 560, 250 590, 175 640 C 115 685, 215 715, 165 770"
        fill="none" stroke="url(#glow)" stroke-width="5" filter="url(#soft)"/>

  <path d="M435 260 C 500 295, 530 330, 455 370 C 405 395, 520 440, 465 495 C 420 545, 560 595, 480 650 C 420 690, 520 730, 455 770"
        fill="none" stroke="rgba(54,214,197,.75)" stroke-width="4" opacity=".85"/>

  <path d="M720 255 C 800 310, 820 350, 735 390 C 690 410, 820 460, 760 505 C 700 560, 860 600, 770 650 C 710 690, 825 735, 740 770"
        fill="none" stroke="rgba(124,92,255,.75)" stroke-width="4" opacity=".85"/>

  <!-- Crossplot-ish mini chart -->
  <g transform="translate(990 250)">
    <rect width="260" height="230" rx="16" fill="rgba(255,255,255,.03)" stroke="rgba(255,255,255,.10)"/>
    <g opacity=".6" stroke="rgba(255,255,255,.25)">
      <line x1="30" y1="30" x2="30" y2="200"/>
      <line x1="30" y1="200" x2="230" y2="200"/>
      <line x1="30" y1="70" x2="230" y2="70"/>
      <line x1="30" y1="110" x2="230" y2="110"/>
      <line x1="30" y1="150" x2="230" y2="150"/>
      <line x1="80" y1="30" x2="80" y2="200"/>
      <line x1="130" y1="30" x2="130" y2="200"/>
      <line x1="180" y1="30" x2="180" y2="200"/>
      <line x1="230" y1="30" x2="230" y2="200"/>
    </g>
    <g fill="rgba(54,214,197,.80)">
      <circle cx="70" cy="170" r="4"/>
      <circle cx="95" cy="160" r="4"/>
      <circle cx="120" cy="150" r="4"/>
      <circle cx="145" cy="130" r="4"/>
      <circle cx="165" cy="120" r="4"/>
      <circle cx="190" cy="95" r="4"/>
      <circle cx="210" cy="75" r="4"/>
    </g>
  </g>

  <text x="140" y="155" fill="rgba(255,255,255,.78)" font-family="ui-sans-serif, system-ui" font-size="16" font-weight="700">
    Log interpretation workflow (illustrative)
  </text>
</svg>
